<svg xmlns="http://www.w3.org/2000/svg" xmlns:xlink="http://www.w3.org/1999/xlink" version="1.1" x="0px" y="0px" viewBox="0 0 100 125" style="enable-background:new 0 0 100 100;" xml:space="preserve"><g><path d="M59.998,14.999H39.997c-2.764,0-5,2.236-5,5V40c0,2.759,2.236,5,5,5h20.001c2.764,0,5-2.241,5-5V19.999   C64.998,17.235,62.762,14.999,59.998,14.999z M59.998,40H39.997V19.999h20.001V40z M45.212,33.397l-3.555-3.516l8.33-8.428   l8.497,8.496l-3.535,3.536l-2.451-2.452v6.739h-5v-6.688L45.212,33.397z M59.998,55H39.997c-2.764,0-5,2.236-5,5v20.002   c0,2.759,2.236,5,5,5h20.001c2.764,0,5-2.241,5-5V60C64.998,57.236,62.762,55,59.998,55z M59.998,80.002H39.997V60h20.001V80.002z    M50.007,78.547l-8.497-8.497l3.536-3.535l2.451,2.451v-6.748h5v6.698l2.285-2.313l3.555,3.516L50.007,78.547z M25.001,55H5   c-2.759,0-5,2.236-5,5v20.002c0,2.764,2.242,5,5,5h20.001c2.764,0,5-2.236,5-5V60C30.001,57.236,27.765,55,25.001,55z    M25.001,80.002H5V60h20.001V80.002z M14.884,78.342l-8.428-8.331l8.497-8.496l3.535,3.535l-2.451,2.451h6.744v5h-6.694   l2.313,2.285L14.884,78.342z M95,55H74.999c-2.764,0-5.001,2.247-5.001,5v20.002c0,2.764,2.237,5,5.001,5H95c2.754,0,5-2.236,5-5   V60C100,57.247,97.754,55,95,55z M95,80.002H74.999V60H95V80.002z M83.965,72.501h-6.749v-5h6.698l-2.313-2.285l3.517-3.555   l8.428,8.33l-8.496,8.497l-3.536-3.536L83.965,72.501z"/></g><text x="0" y="115" fill="#000000" font-size="5px" font-weight="bold" font-family="'Helvetica Neue', Helvetica, Arial-Unicode, Arial, Sans-serif">Created by b farias</text><text x="0" y="120" fill="#000000" font-size="5px" font-weight="bold" font-family="'Helvetica Neue', Helvetica, Arial-Unicode, Arial, Sans-serif">from the Noun Project</text></svg>